<svg xmlns="http://www.w3.org/2000/svg" viewBox="0 0 1200 630" preserveAspectRatio="xMidYMid slice">
  <defs>
    <!-- VLN Brand Colors -->
    <linearGradient id="trace-gradient-1" x1="0%" y1="0%" x2="100%" y2="100%">
      <stop offset="0%" style="stop-color:#a6c3a7;stop-opacity:1" />
      <stop offset="100%" style="stop-color:#aab7c8;stop-opacity:1" />
    </linearGradient>

    <linearGradient id="trace-gradient-2" x1="100%" y1="0%" x2="0%" y2="100%">
      <stop offset="0%" style="stop-color:#aab7c8;stop-opacity:1" />
      <stop offset="100%" style="stop-color:#a6c3a7;stop-opacity:1" />
    </linearGradient>

    <!-- Radial gradient for center fade -->
    <radialGradient id="center-fade">
      <stop offset="0%" style="stop-color:#0f0f0f;stop-opacity:0.9" />
      <stop offset="50%" style="stop-color:#0f0f0f;stop-opacity:0.5" />
      <stop offset="100%" style="stop-color:#0f0f0f;stop-opacity:0.1" />
    </radialGradient>
  </defs>

  <!-- Background -->
  <rect width="1200" height="630" fill="#0a0f0a"/>

  <!-- Circuit Traces Group - Top Left -->
  <g stroke="url(#trace-gradient-1)" stroke-width="2" fill="none" opacity="0.85">
    <!-- Diagonal traces -->
    <path d="M 20 20 L 150 20 L 180 50 L 250 50"/>
    <path d="M 20 40 L 120 40 L 150 70 L 220 70"/>
    <path d="M 20 60 L 100 60 L 130 90 L 200 90"/>
    <path d="M 20 80 L 80 80 L 110 110 L 180 110"/>
    <path d="M 20 100 L 60 100 L 90 130 L 160 130"/>

    <!-- Vertical traces -->
    <path d="M 280 20 L 280 180"/>
    <path d="M 300 20 L 300 160"/>
    <path d="M 320 20 L 320 200"/>
    <path d="M 340 20 L 340 140"/>

    <!-- Angular paths -->
    <path d="M 50 200 L 100 200 L 120 220 L 180 220 L 200 240"/>
    <path d="M 30 250 L 90 250 L 110 270 L 170 270"/>
  </g>

  <!-- Connection pads - Top Left -->
  <g fill="#a6c3a7">
    <circle cx="20" cy="20" r="3"/>
    <circle cx="150" cy="20" r="3"/>
    <circle cx="250" cy="50" r="3"/>
    <circle cx="20" cy="40" r="3"/>
    <circle cx="220" cy="70" r="3"/>
    <circle cx="200" cy="90" r="3"/>
    <circle cx="180" cy="110" r="3"/>
    <circle cx="160" cy="130" r="3"/>
    <circle cx="280" cy="180" r="3"/>
    <circle cx="300" cy="160" r="3"/>
    <circle cx="320" cy="200" r="3"/>
    <circle cx="200" cy="240" r="3"/>
  </g>

  <!-- Circuit Traces Group - Top Right -->
  <g stroke="url(#trace-gradient-2)" stroke-width="2" fill="none" opacity="0.85">
    <!-- Diagonal traces from right -->
    <path d="M 1180 20 L 1050 20 L 1020 50 L 950 50"/>
    <path d="M 1180 40 L 1080 40 L 1050 70 L 980 70"/>
    <path d="M 1180 60 L 1100 60 L 1070 90 L 1000 90"/>
    <path d="M 1180 80 L 1120 80 L 1090 110 L 1020 110"/>
    <path d="M 1180 100 L 1140 100 L 1110 130 L 1040 130"/>

    <!-- Vertical traces -->
    <path d="M 920 20 L 920 180"/>
    <path d="M 900 20 L 900 160"/>
    <path d="M 880 20 L 880 200"/>
    <path d="M 860 20 L 860 140"/>

    <!-- Angular paths -->
    <path d="M 1150 200 L 1100 200 L 1080 220 L 1020 220 L 1000 240"/>
    <path d="M 1170 250 L 1110 250 L 1090 270 L 1030 270"/>
  </g>

  <!-- Connection pads - Top Right -->
  <g fill="#aab7c8">
    <circle cx="1180" cy="20" r="3"/>
    <circle cx="1050" cy="20" r="3"/>
    <circle cx="950" cy="50" r="3"/>
    <circle cx="1180" cy="40" r="3"/>
    <circle cx="980" cy="70" r="3"/>
    <circle cx="1000" cy="90" r="3"/>
    <circle cx="1020" cy="110" r="3"/>
    <circle cx="1040" cy="130" r="3"/>
    <circle cx="920" cy="180" r="3"/>
    <circle cx="900" cy="160" r="3"/>
    <circle cx="880" cy="200" r="3"/>
    <circle cx="1000" cy="240" r="3"/>
  </g>

  <!-- Circuit Traces Group - Bottom Left -->
  <g stroke="url(#trace-gradient-1)" stroke-width="2" fill="none" opacity="0.85">
    <!-- Diagonal traces -->
    <path d="M 20 610 L 150 610 L 180 580 L 250 580"/>
    <path d="M 20 590 L 120 590 L 150 560 L 220 560"/>
    <path d="M 20 570 L 100 570 L 130 540 L 200 540"/>
    <path d="M 20 550 L 80 550 L 110 520 L 180 520"/>
    <path d="M 20 530 L 60 530 L 90 500 L 160 500"/>

    <!-- Vertical traces -->
    <path d="M 280 610 L 280 450"/>
    <path d="M 300 610 L 300 470"/>
    <path d="M 320 610 L 320 430"/>
    <path d="M 340 610 L 340 490"/>

    <!-- Angular paths -->
    <path d="M 50 430 L 100 430 L 120 410 L 180 410 L 200 390"/>
    <path d="M 30 380 L 90 380 L 110 360 L 170 360"/>
  </g>

  <!-- Connection pads - Bottom Left -->
  <g fill="#a6c3a7">
    <circle cx="20" cy="610" r="3"/>
    <circle cx="150" cy="610" r="3"/>
    <circle cx="250" cy="580" r="3"/>
    <circle cx="20" cy="590" r="3"/>
    <circle cx="220" cy="560" r="3"/>
    <circle cx="200" cy="540" r="3"/>
    <circle cx="180" cy="520" r="3"/>
    <circle cx="160" cy="500" r="3"/>
    <circle cx="280" cy="450" r="3"/>
    <circle cx="300" cy="470" r="3"/>
    <circle cx="320" cy="430" r="3"/>
    <circle cx="200" cy="390" r="3"/>
  </g>

  <!-- Circuit Traces Group - Bottom Right -->
  <g stroke="url(#trace-gradient-2)" stroke-width="2" fill="none" opacity="0.85">
    <!-- Diagonal traces from right -->
    <path d="M 1180 610 L 1050 610 L 1020 580 L 950 580"/>
    <path d="M 1180 590 L 1080 590 L 1050 560 L 980 560"/>
    <path d="M 1180 570 L 1100 570 L 1070 540 L 1000 540"/>
    <path d="M 1180 550 L 1120 550 L 1090 520 L 1020 520"/>
    <path d="M 1180 530 L 1140 530 L 1110 500 L 1040 500"/>

    <!-- Vertical traces -->
    <path d="M 920 610 L 920 450"/>
    <path d="M 900 610 L 900 470"/>
    <path d="M 880 610 L 880 430"/>
    <path d="M 860 610 L 860 490"/>

    <!-- Angular paths -->
    <path d="M 1150 430 L 1100 430 L 1080 410 L 1020 410 L 1000 390"/>
    <path d="M 1170 380 L 1110 380 L 1090 360 L 1030 360"/>
  </g>

  <!-- Connection pads - Bottom Right -->
  <g fill="#aab7c8">
    <circle cx="1180" cy="610" r="3"/>
    <circle cx="1050" cy="610" r="3"/>
    <circle cx="950" cy="580" r="3"/>
    <circle cx="1180" cy="590" r="3"/>
    <circle cx="980" cy="560" r="3"/>
    <circle cx="1000" cy="540" r="3"/>
    <circle cx="1020" cy="520" r="3"/>
    <circle cx="1040" cy="500" r="3"/>
    <circle cx="920" cy="450" r="3"/>
    <circle cx="900" cy="470" r="3"/>
    <circle cx="880" cy="430" r="3"/>
    <circle cx="1000" cy="390" r="3"/>
  </g>

  <!-- Additional horizontal traces for detail -->
  <g stroke="#a6c3a7" stroke-width="1.5" fill="none" opacity="0.6">
    <path d="M 400 100 L 450 100 L 470 120"/>
    <path d="M 400 130 L 480 130"/>
    <path d="M 750 100 L 800 100 L 820 120"/>
    <path d="M 750 130 L 820 130"/>

    <path d="M 400 500 L 450 500 L 470 480"/>
    <path d="M 400 530 L 480 530"/>
    <path d="M 750 500 L 800 500 L 820 480"/>
    <path d="M 750 530 L 820 530"/>
  </g>

  <!-- Small connection pads for detail -->
  <g fill="#aab7c8" opacity="0.8">
    <circle cx="400" cy="100" r="2"/>
    <circle cx="470" cy="120" r="2"/>
    <circle cx="480" cy="130" r="2"/>
    <circle cx="750" cy="100" r="2"/>
    <circle cx="820" cy="120" r="2"/>
    <circle cx="820" cy="130" r="2"/>
    <circle cx="400" cy="500" r="2"/>
    <circle cx="470" cy="480" r="2"/>
    <circle cx="480" cy="530" r="2"/>
    <circle cx="750" cy="500" r="2"/>
    <circle cx="820" cy="480" r="2"/>
    <circle cx="820" cy="530" r="2"/>
  </g>

  <!-- Center clear area with subtle fade -->
  <ellipse cx="600" cy="315" rx="400" ry="200" fill="url(#center-fade)"/>
</svg>
