<svg xmlns="http://www.w3.org/2000/svg" viewBox="0 0 595 128"><defs><style>.cls-1{fill:#e9fff4;}</style></defs><g id="Gamba_light_text_logo" data-name="Gamba light text logo"><path class="cls-1" d="M124,5H35.76a2.65,2.65,0,0,0-2.57,2L5,119.7A2.66,2.66,0,0,0,7.59,123H96a2.65,2.65,0,0,0,2.58-2L115.3,53.91a2.66,2.66,0,0,0-2.58-3.29H67.49a2.64,2.64,0,0,0-2.57,2L59.56,74.07a2.65,2.65,0,0,0,2.57,3.3H79.37A2.66,2.66,0,0,1,82,80.66L78.61,94.23a2.66,2.66,0,0,1-2.58,2H41A2.65,2.65,0,0,1,38.38,93l14.79-59.2a2.66,2.66,0,0,1,2.58-2h62.92a2.66,2.66,0,0,0,2.58-2L126.61,8.3A2.65,2.65,0,0,0,124,5Z"/><path class="cls-1" d="M146.49,7.18l-28,112.53a2.65,2.65,0,0,0,2.57,3.29h21a2.66,2.66,0,0,0,2.57-2l10.48-41.61a2.64,2.64,0,0,1,2.57-2h34.94a2.65,2.65,0,0,1,2.57,3.29l-9.69,39.05a2.66,2.66,0,0,0,2.58,3.29h21.21a2.66,2.66,0,0,0,2.58-2l28-112.53a2.66,2.66,0,0,0-2.58-3.3H149.06A2.64,2.64,0,0,0,146.49,7.18Zm54.18,43.44H165.74a2.66,2.66,0,0,1-2.58-3.29l3.32-13.57a2.66,2.66,0,0,1,2.58-2h35.08a2.65,2.65,0,0,1,2.57,3.31l-3.47,13.57A2.64,2.64,0,0,1,200.67,50.62Z"/><path class="cls-1" d="M496.56,7.18l-28,112.53a2.65,2.65,0,0,0,2.58,3.29h21a2.66,2.66,0,0,0,2.57-2l10.48-41.61a2.64,2.64,0,0,1,2.57-2h34.94a2.65,2.65,0,0,1,2.57,3.29l-9.68,39.05a2.65,2.65,0,0,0,2.57,3.29H559.4a2.66,2.66,0,0,0,2.58-2L590,8.46a2.66,2.66,0,0,0-2.58-3.3H499.13A2.65,2.65,0,0,0,496.56,7.18Zm54.18,43.44H515.81a2.66,2.66,0,0,1-2.58-3.29l3.32-13.57a2.66,2.66,0,0,1,2.58-2h35.08a2.65,2.65,0,0,1,2.57,3.31l-3.47,13.57A2.64,2.64,0,0,1,550.74,50.62Z"/><path class="cls-1" d="M330.82,6,304.67,40a1.32,1.32,0,0,1-2.33-.46L293.61,7a2.65,2.65,0,0,0-2.56-2H262.64a2.66,2.66,0,0,0-2.58,2L231.89,119.7a2.65,2.65,0,0,0,2.57,3.3h21.2a2.64,2.64,0,0,0,2.57-2l16.34-65.62a2.66,2.66,0,0,1,5.14,0l9,33.1a2.65,2.65,0,0,0,4.66.92l26.24-34.23a2.65,2.65,0,0,1,4.68,2.26l-15.51,62.34a2.65,2.65,0,0,0,2.58,3.29h21.21a2.64,2.64,0,0,0,2.57-2L363.26,8.3A2.66,2.66,0,0,0,360.68,5H332.92A2.65,2.65,0,0,0,330.82,6Z"/><path class="cls-1" d="M474.1,5H385.82a2.65,2.65,0,0,0-2.57,2L355.07,119.7a2.66,2.66,0,0,0,2.58,3.3h88.44a2.65,2.65,0,0,0,2.58-2l10.71-43.17-.5-2.28C456.12,72,454,69.09,450.71,64.6l-.58-.8.77-.62,14.48-11.74.9-1.42L476.68,8.3A2.66,2.66,0,0,0,474.1,5ZM443.47,35.05,440,48.62a2.65,2.65,0,0,1-2.58,2H416.22a2.64,2.64,0,0,0-2.57,2l-5.36,21.44a2.65,2.65,0,0,0,2.57,3.3h21.95l-.32,1.28-3.82,15.58a2.66,2.66,0,0,1-2.58,2H391a2.65,2.65,0,0,1-2.57-3.3l14.8-59.2a2.64,2.64,0,0,1,2.57-2H440.9A2.66,2.66,0,0,1,443.47,35.05Z"/></g></svg>