<svg xmlns="http://www.w3.org/2000/svg" version="1.1" xmlns:xlink="http://www.w3.org/1999/xlink" xmlns:svgjs="http://svgjs.dev/svgjs" width="1000" height="623" viewBox="0 0 1000 623"><g transform="matrix(1,0,0,1,-0.6060606060606233,0.2522267206477409)"><svg viewBox="0 0 396 247" data-background-color="#ffffff" preserveAspectRatio="xMidYMid meet" height="623" width="1000" xmlns="http://www.w3.org/2000/svg" xmlns:xlink="http://www.w3.org/1999/xlink"><g id="tight-bounds" transform="matrix(1,0,0,1,0.2400000000000091,-0.09999999999999432)"><svg viewBox="0 0 395.52 247.2" height="247.2" width="395.52"><g><svg></svg></g><g><svg viewBox="0 0 395.52 247.2" height="247.2" width="395.52"><g transform="matrix(1,0,0,1,75.54432,91.77901455118109)"><svg viewBox="0 0 244.43135999999998 63.64197089763779" height="63.64197089763779" width="244.43135999999998"><g><svg viewBox="0 0 244.43135999999998 63.64197089763779" height="63.64197089763779" width="244.43135999999998"><g><svg viewBox="0 0 244.43135999999998 63.64197089763779" height="63.64197089763779" width="244.43135999999998"><g><svg viewBox="0 0 244.43135999999998 63.64197089763779" height="63.64197089763779" width="244.43135999999998"><g id="textblocktransform"><svg viewBox="0 0 244.43135999999998 63.64197089763779" height="63.64197089763779" width="244.43135999999998" id="textblock"><g><svg viewBox="0 0 244.43135999999998 63.64197089763779" height="63.64197089763779" width="244.43135999999998"><g transform="matrix(1,0,0,1,0,0)"><svg width="244.43135999999998" viewBox="2.93 -37.5 190.48 49.6" height="63.64197089763779" data-palette-color="#000000"><path d="M11.28 0.5L9.33 0.5Q7.05 0.5 5.64-0.38 4.23-1.25 3.58-2.69 2.93-4.13 2.93-5.83L2.93-5.83 2.93-37.5 8.53-37.5 8.53-8.38Q8.53-6.35 8.78-5.44 9.03-4.53 9.74-4.29 10.45-4.05 11.88-4.05L11.88-4.05 11.28 0.5ZM25.25 0.5L25.25 0.5Q21.72 0.5 19.5-0.91 17.27-2.33 16.23-4.91 15.2-7.5 15.2-11.08L15.2-11.08 15.2-24.83 20.77-24.83 20.77-11.53Q20.77-7.9 22.01-6.09 23.25-4.28 26-4.28L26-4.28Q28.1-4.28 29.62-5.28 31.15-6.28 32-8.2L32-8.2 31.05-5.33 31.05-24.83 36.62-24.83 36.62 0 31.5 0 30.97-4.53 32.27-3.1Q31.25-1.55 29.37-0.53 27.5 0.5 25.25 0.5ZM54.02 0.5L54.02 0.5Q49.77 0.5 46.9-1.24 44.02-2.98 42.56-5.89 41.1-8.8 41.1-12.33L41.1-12.33Q41.1-15.93 42.53-18.88 43.97-21.83 46.9-23.58 49.82-25.33 54.27-25.33L54.27-25.33Q56.32-25.33 58.02-24.89 59.72-24.45 60.97-23.78L60.97-23.78 60.4-19.15Q59.17-19.78 57.7-20.16 56.22-20.55 54.62-20.55L54.62-20.55Q50.87-20.55 48.83-18.34 46.8-16.13 46.8-12.4L46.8-12.4Q46.8-8.83 48.82-6.5 50.85-4.17 54.55-4.17L54.55-4.17Q56.12-4.17 57.6-4.6 59.07-5.03 60.45-5.78L60.45-5.78 61.02-1.13Q59.82-0.45 57.96 0.03 56.1 0.5 54.02 0.5ZM70.79 0L65.22 0 65.22-37.5 70.79-37.5 70.79-14.28 79.02-24.83 85.47-24.83 76.12-13.03 85.69 0 79.22 0 70.79-11.6 70.79 0ZM96.57 12.1L90.79 12.1 96.37-1.45 86.04-24.83 92.27-24.83 99.12-7.95 105.77-24.83 111.97-24.83 96.57 12.1ZM139.01 0.5L139.01 0.5Q136.26 0.5 134.07-0.54 131.89-1.58 130.39-3.48L130.39-3.48 131.96-4.6 131.46 0 126.31 0 126.31-37.5 131.89-37.5 131.89-20.43 130.59-21.3Q132.11-23.1 134.25-24.18 136.39-25.25 139.01-25.25L139.01-25.25Q142.61-25.25 145.1-23.48 147.59-21.7 148.89-18.76 150.19-15.83 150.19-12.38L150.19-12.38Q150.19-8.85 148.84-5.93 147.49-3 144.99-1.25 142.49 0.5 139.01 0.5ZM138.24-4.2L138.24-4.2Q140.21-4.2 141.61-5.26 143.01-6.33 143.75-8.18 144.49-10.03 144.49-12.38L144.49-12.38Q144.49-14.78 143.75-16.61 143.01-18.45 141.61-19.5 140.21-20.55 138.24-20.55L138.24-20.55Q136.16-20.55 134.69-19.56 133.21-18.57 132.41-16.75 131.61-14.93 131.61-12.38L131.61-12.38Q131.61-9.78 132.41-7.95 133.21-6.13 134.69-5.16 136.16-4.2 138.24-4.2ZM166.56 0.5L166.56 0.5Q162.11 0.5 159.12-1.3 156.13-3.1 154.62-6.06 153.11-9.03 153.11-12.58L153.11-12.58Q153.11-16 154.52-18.89 155.93-21.78 158.65-23.51 161.36-25.25 165.23-25.25L165.23-25.25Q168.63-25.25 171.03-23.88 173.43-22.5 174.7-20.09 175.96-17.68 175.96-14.58L175.96-14.58Q175.96-13.88 175.87-13.11 175.78-12.35 175.63-11.55L175.63-11.55 158.88-11.55Q159.23-8.83 160.41-7.23 161.58-5.63 163.33-4.91 165.08-4.2 167.11-4.2L167.11-4.2Q169.11-4.2 170.97-4.69 172.83-5.18 174.43-6.03L174.43-6.03 174.86-1.4Q173.43-0.7 171.33-0.1 169.23 0.5 166.56 0.5ZM159.13-15.35L159.13-15.35 170.26-15.35Q170.26-16.7 169.75-17.89 169.23-19.07 168.12-19.81 167.01-20.55 165.21-20.55L165.21-20.55Q162.58-20.55 161.12-19.13 159.66-17.7 159.13-15.35ZM192.88 0.5L188.58 0.5Q186.23 0.5 184.78-0.43 183.33-1.35 182.66-2.79 181.98-4.23 181.98-5.8L181.98-5.8 181.98-20.3 178.18-20.3 178.68-24.83 181.98-24.83 181.98-30.53 187.56-31.1 187.56-24.83 193.41-24.83 193.41-20.3 187.56-20.3 187.56-8.43Q187.56-6.35 187.81-5.44 188.06-4.53 188.96-4.29 189.86-4.05 191.86-4.05L191.86-4.05 193.36-4.05 192.88 0.5Z" opacity="1" transform="matrix(1,0,0,1,0,0)" fill="#000000" class="wordmark-text-0" data-fill-palette-color="primary" id="text-0"></path></svg></g></svg></g></svg></g></svg></g></svg></g></svg></g></svg></g><path d="M201.217 85.779L201.217 27.713 9.444 27.713 9.444 219.487 201.217 219.487 201.217 161.421 195.478 161.421 195.478 213.747 15.183 213.747 15.183 33.453 195.478 33.453 195.478 85.779Z" fill="#000000" stroke="transparent" data-fill-palette-color="primary"></path></svg></g><defs></defs></svg><rect width="395.52" height="247.2" fill="none" stroke="none" visibility="hidden"></rect></g></svg></g></svg>