<svg width="100" height="27" viewBox="0 0 100 27" class="fill-current stroke-transparent" xmlns="http://www.w3.org/2000/svg"><path d="M43.4456 11.3697H39.1843L37.6308 22.5243H33.6716L35.2251 11.3697H30.9638L31.4493 8.01499H43.9275L43.442 11.3697H43.4456Z"></path><path d="M54.3082 8.015H58.2639L56.2249 22.5279H52.2693L53.0784 16.83H47.9684L47.1593 22.5279H43.2036L45.2426 8.015H49.2018L48.4143 13.4933H53.5423L54.3082 8.015Z"></path><path d="M62.8278 17.7191L62.1625 22.5279H58.2033L60.2423 8.015H66.2189C69.592 8.015 71.6489 9.71393 71.6489 12.4603C71.6489 14.6452 70.3579 16.4413 68.2578 17.2512L70.7607 22.5279H66.4994L64.3777 17.7191H62.8242H62.8278ZM65.6723 14.5876C66.9021 14.5876 67.7724 13.8389 67.7724 12.7879C67.7724 11.8772 67.0855 11.3337 65.8737 11.3337H63.7124L63.2665 14.5876H65.6723Z"></path><path d="M77.8878 8.015L75.8488 22.5279H71.8896L73.9285 8.015H77.8878Z"></path><path d="M77.8278 22.5279L79.8667 8.01499H83.826L82.2509 19.1696H88.49L88.0261 22.5243H77.8278V22.5279Z"></path><path d="M89.3377 22.5279L91.3767 8.01499H95.3359L93.7609 19.1696H100L99.5361 22.5243H89.3377V22.5279Z"></path><path d="M19.2388 9.55068L26.1644 5.55186L16.5458 0L0 9.55068L9.61861 15.1025L9.62016 3.99883L19.2388 9.55068Z"></path><path d="M9.62015 15.1025L9.61861 15.1025L9.6186 20.9287L19.2388 26.4821L19.2388 9.55068L9.62015 15.1025Z"></path></svg>